<?xml version="1.0" encoding="UTF-8" standalone="no"?>
<svg width="48px" height="48px" viewBox="0 0 48 48" version="1.1" xmlns="http://www.w3.org/2000/svg" xmlns:xlink="http://www.w3.org/1999/xlink">
    <!-- Generator: Sketch 44.1 (41455) - http://www.bohemiancoding.com/sketch -->
    <title>Group 6</title>
    <desc>Created with Sketch.</desc>
    <defs></defs>
    <g id="Page-1" stroke="none" stroke-width="1" fill="none" fill-rule="evenodd">
        <g id="NewWBXLandingPage-MeetingList-info-032017" transform="translate(-744.000000, -1312.000000)">
            <g id="Group-3" transform="translate(744.000000, 1312.000000)">
                <g id="Notification_Success">
                    <g id="Group-6">
                        <g>
                            <path d="M0,2.00138927 C0,0.896052496 0.894938439,0 2.00138927,0 L48,0 L48,48 L2.00138927,48 C0.896052496,48 0,47.1050616 0,45.9986107 L0,2.00138927 Z" id="BG" fill="#F96452"></path>
                            <path d="M28.5703125,14 L19.4296875,14 L14,19.4296875 L14,28.5703125 L19.4296875,34 L28.5703125,34 L34,28.5703125 L34,19.4296875 L28.5703125,14 Z M27.515625,26.34375 C27.8802102,26.7083352 27.8802102,27.0989563 27.515625,27.515625 C27.3593742,27.6718758 27.1640637,27.75 26.9296875,27.75 C26.6953113,27.75 26.5000008,27.6718758 26.34375,27.515625 L24,25.171875 L21.65625,27.515625 C21.4999992,27.6718758 21.3046887,27.75 21.0703125,27.75 C20.8359363,27.75 20.6406258,27.6718758 20.484375,27.515625 C20.1197898,27.0989563 20.1197898,26.7083352 20.484375,26.34375 L22.828125,24 L20.5625,21.734375 C20.3802074,21.5781242 20.2890625,21.3828137 20.2890625,21.1484375 C20.2890625,20.9140613 20.3802074,20.7187508 20.5625,20.5625 C20.7187508,20.3802074 20.9140613,20.2890625 21.1484375,20.2890625 C21.3828137,20.2890625 21.5781242,20.3802074 21.734375,20.5625 L24,22.828125 L26.34375,20.484375 C26.7083352,20.1197898 27.0989563,20.1197898 27.515625,20.484375 C27.8802102,20.9010438 27.8802102,21.2916648 27.515625,21.65625 L25.171875,24 L27.515625,26.34375 Z" id="Error-Icon" fill="#FFFFFF"></path>
                        </g>
                    </g>
                </g>
            </g>
        </g>
    </g>
</svg>