<?xml version="1.0" encoding="UTF-8" standalone="no"?>
<svg width="48px" height="48px" viewBox="0 0 48 48" version="1.1" xmlns="http://www.w3.org/2000/svg" xmlns:xlink="http://www.w3.org/1999/xlink">
    <!-- Generator: Sketch 44.1 (41455) - http://www.bohemiancoding.com/sketch -->
    <title>Group 7</title>
    <desc>Created with Sketch.</desc>
    <defs></defs>
    <g id="Page-1" stroke="none" stroke-width="1" fill="none" fill-rule="evenodd">
        <g id="NewWBXLandingPage-MeetingList-info-032017" transform="translate(-1429.000000, -362.000000)">
            <g id="Notification_Success" transform="translate(1429.000000, 362.000000)">
                <g id="Group-7">
                    <g>
                        <path d="M0,2.00138927 C0,0.896052496 0.894938439,0 2.00138927,0 L48,0 L48,48 L2.00138927,48 C0.896052496,48 0,47.1050616 0,45.9986107 L0,2.00138927 Z" id="BG" fill="#049FD9"></path>
                        <g id="info-icon" transform="translate(14.000000, 14.000000)">
                            <path d="M10,0 C4.4775,0 0,4.4768532 0,9.99958332 C0,15.5231468 4.4775,20 10,20 C15.5225,20 20,15.5231468 20,9.99958332 C20,4.4768532 15.5225,0 10,0 L10,0 Z" id="Stroke-1" fill="#FFFFFF"></path>
                            <path d="M10.9090909,15.455341 C10.9090909,15.9572219 10.5027273,16.3636364 10,16.3636364 C9.49727273,16.3636364 9.09090909,15.9572219 9.09090909,15.455341 L9.09090909,10.0001137 C9.09090909,9.49732353 9.49727273,9.09090909 10,9.09090909 C10.5027273,9.09090909 10.9090909,9.49732353 10.9090909,10.0001137 L10.9090909,15.455341" id="Fill-2" fill="#049FD9"></path>
                            <path d="M10.6454545,7.00743282 C10.4718182,7.17209834 10.2363636,7.27272727 10,7.27272727 C9.76363636,7.27272727 9.52636364,7.17209834 9.35454545,7.00743282 C9.19,6.83361921 9.09090909,6.59576901 9.09090909,6.35791881 C9.09090909,6.12006861 9.19,5.88221841 9.35454545,5.7084048 C9.7,5.36992567 10.3090909,5.36992567 10.6454545,5.7084048 C10.8090909,5.88221841 10.9090909,6.11092053 10.9090909,6.35791881 C10.9090909,6.59576901 10.8090909,6.83361921 10.6454545,7.00743282" id="Fill-3" fill="#049FD9"></path>
                        </g>
                    </g>
                </g>
            </g>
        </g>
    </g>
</svg>