<?xml version="1.0" encoding="UTF-8" standalone="no"?>
<svg width="48px" height="48px" viewBox="0 0 48 48" version="1.1" xmlns="http://www.w3.org/2000/svg" xmlns:xlink="http://www.w3.org/1999/xlink">
    <!-- Generator: Sketch 44.1 (41455) - http://www.bohemiancoding.com/sketch -->
    <title>Group 4</title>
    <desc>Created with Sketch.</desc>
    <defs></defs>
    <g id="Page-1" stroke="none" stroke-width="1" fill="none" fill-rule="evenodd">
        <g id="NewWBXLandingPage-MeetingList-info-032017" transform="translate(-744.000000, -1226.000000)">
            <g id="Notification_Success" transform="translate(744.000000, 1226.000000)">
                <g id="Group-4">
                    <path d="M0,2.00138927 C0,0.896052496 0.894938439,0 2.00138927,0 L48,0 L48,48 L2.00138927,48 C0.896052496,48 0,47.1050616 0,45.9986107 L0,2.00138927 Z" id="BG" fill="#43A942"></path>
                    <path d="M20.6080191,30.7015597 L14.3585764,24.4521169 C13.8804745,23.9740151 13.8804745,23.4617708 14.3585764,22.9153687 C14.9049785,22.4372669 15.4172228,22.4372669 15.8953246,22.9153687 L20.6080191,27.6280632 L31.877506,16.3585764 C32.3556078,15.8804745 32.8678521,15.8804745 33.4142542,16.3585764 C33.892356,16.9049785 33.892356,17.4172228 33.4142542,17.8953246 L20.6080191,30.7015597 Z" id="Check-Icon" fill="#FFFFFF"></path>
                </g>
            </g>
        </g>
    </g>
</svg>